# xmcd
#
# Track frame offsets:
#	150
#	13440
#	27847
#	45117
#	56672
#	70310
#	88052
#	100347
#	108890
#	123742
#	135440
#	150615
#	165982
#	179387
#	195070
#
# Disc length: 2746 seconds
#
# Revision: 1
# Processed by: cddbd v1.5.2PL0 Copyright (c) Steve Scherf et al.
# Submitted via: audiograbber 1.83.01
#
DISCID=ba0ab80f
DTITLE=The Mercey Brothers - 30 Greatest - Their Hits and Much More!
DYEAR=1990
DGENRE=Country
TTITLE0=I Wish You Could Have Turned My Head
TTITLE1=A Pretty Diamond Ring
TTITLE2=Stranger
TTITLE3=Never Ending Song of Love
TTITLE4=The Same Eyes That Drove Me Crazy
TTITLE5=Leader of the Band
TTITLE6=Goodtime Charlie's Got the Blues
TTITLE7=My Song for You
TTITLE8=Straight to Your Heart
TTITLE9=All the Gold in California
TTITLE10=Take Me Home Country Roads
TTITLE11=Heroes
TTITLE12=Catfish John
TTITLE13=Scotch and Soda
TTITLE14=Take a Little Chance on Love
EXTD=
EXTT0=
EXTT1=
EXTT2=
EXTT3=
EXTT4=
EXTT5=
EXTT6=
EXTT7=
EXTT8=
EXTT9=
EXTT10=
EXTT11=
EXTT12=
EXTT13=
EXTT14=
PLAYORDER=
